<?xml version="1.0" encoding="utf-8"?>
<!-- Generator: Adobe Illustrator 24.0.1, SVG Export Plug-In . SVG Version: 6.00 Build 0)  -->
<svg version="1.1" id="Layer_1" xmlns="http://www.w3.org/2000/svg" xmlns:xlink="http://www.w3.org/1999/xlink" x="0px" y="0px"
	 viewBox="0 0 325 219" style="enable-background:new 0 0 325 219;" xml:space="preserve">
<style type="text/css">
	.st0{fill:#FFFFFF;}
</style>
<rect x="204.4" y="113.4" transform="matrix(0.788 0.6157 -0.6157 0.788 120.21 -118.0575)" class="st0" width="54.3" height="4.2"/>
<path class="st0" d="M208.6,98h3.4v6h-4v-5.4C208,98.3,208.3,98,208.6,98z"/>
<rect x="210" y="97" class="st0" width="2" height="2"/>
<rect x="212" y="99" class="st0" width="42" height="32"/>
<g>
	<path d="M316,14.5H10.5c-1.6,0-3-1.3-3-3s1.3-3,3-3H316c1.6,0,3,1.3,3,3S317.6,14.5,316,14.5z"/>
</g>
<g>
	<path d="M316,114.5H10.5c-1.6,0-3-1.3-3-3s1.3-3,3-3H316c1.6,0,3,1.3,3,3S317.6,114.5,316,114.5z"/>
</g>
<g>
	<path d="M316,212.5H10.5c-1.6,0-3-1.3-3-3s1.3-3,3-3H316c1.6,0,3,1.3,3,3S317.6,212.5,316,212.5z"/>
</g>
</svg>
